<?xml version="1.0" encoding="utf-8"?>
<!-- Generator: Adobe Illustrator 26.2.1, SVG Export Plug-In . SVG Version: 6.00 Build 0)  -->
<svg version="1.1" xmlns="http://www.w3.org/2000/svg" xmlns:xlink="http://www.w3.org/1999/xlink" x="0px" y="0px"
	 viewBox="0 0 256 256" style="enable-background:new 0 0 256 256;" xml:space="preserve">
<style type="text/css">
	.st0{fill:#FFFFFF;}
	.st1{fill:#0066DA;}
	.st2{fill:#00AC47;}
	.st3{fill:#EA4335;}
	.st4{fill:#00832D;}
	.st5{fill:#2684FC;}
	.st6{fill:#FFBA00;}
</style>
<g id="Layer_1">
	<rect class="st0" width="256" height="256"/>
</g>
<g id="Layer_2">
	<g>
		<path class="st1" d="M70.3,171.4l6,10.4c1.2,2.2,3,3.9,5.1,5.1l21.4-37.1H60c0,2.4,0.6,4.8,1.9,7L70.3,171.4z"/>
		<path class="st2" d="M128,106.2l-21.4-37.1c-2.1,1.2-3.9,3-5.1,5.1l-39.6,68.5c-1.2,2.1-1.9,4.6-1.9,7h42.8L128,106.2z"/>
		<path class="st3" d="M174.6,186.9c2.1-1.2,3.9-3,5.1-5.1l2.5-4.3l11.9-20.6c1.2-2.2,1.9-4.6,1.9-7h-42.8l9.1,17.9L174.6,186.9z"/>
		<path class="st4" d="M128,106.2l21.4-37.1c-2.1-1.2-4.5-1.9-7-1.9h-28.8c-2.5,0-4.9,0.7-7,1.9L128,106.2z"/>
		<path class="st5" d="M153.2,149.8h-50.3l-21.4,37.1c2.1,1.2,4.5,1.9,7,1.9h79.1c2.5,0,4.9-0.7,7-1.9L153.2,149.8z"/>
		<path class="st6" d="M174.3,108.5l-19.8-34.3c-1.2-2.2-3-3.9-5.1-5.1L128,106.2l25.2,43.6h42.8c0-2.4-0.6-4.8-1.9-7L174.3,108.5z"
			/>
	</g>
</g>
</svg>
